<svg width="48" height="48" viewBox="0 0 48 48" fill="none" xmlns="http://www.w3.org/2000/svg">
  <rect width="48" height="48" rx="12" fill="#0a192f"/>
  <path 
    d="M18.5 32c-2.5 0-4.5-.7-6-2.1-1.4-1.4-2.2-3.3-2.2-5.7h4.8c0 1.2.3 2.2 1 2.8.6.7 1.5 1 2.6 1 1 0 1.8-.2 2.4-.7.6-.5.9-1.2.9-2 0-.7-.2-1.3-.7-1.8-.4-.5-1-.8-1.6-1-.6-.2-1.5-.5-2.7-.8-1.6-.4-2.9-.8-3.9-1.3-1-.4-1.8-1.1-2.5-2-.7-1-1-2.2-1-3.8 0-2.2.8-3.9 2.3-5.1 1.5-1.2 3.5-1.8 5.9-1.8 2.5 0 4.4.6 5.9 1.9 1.5 1.2 2.3 3 2.4 5.2h-4.9c0-1-.3-1.8-.9-2.4-.6-.6-1.4-.9-2.5-.9-.9 0-1.7.2-2.2.7-.6.5-.8 1.1-.8 2 0 .6.2 1.1.5 1.5.4.4.9.7 1.4.9.6.2 1.4.5 2.5.7 1.6.4 3 .8 4 1.3 1.1.5 2 1.2 2.7 2.2.7.9 1.1 2.2 1.1 3.8 0 1.3-.3 2.5-1 3.6-.6 1.1-1.6 1.9-2.8 2.6-1.3.6-2.8.9-4.5.9z" 
    fill="#64ffda"
  />
  <path 
    d="M35.5 32c-2.5 0-4.5-.7-6-2.1-1.4-1.4-2.2-3.3-2.2-5.7h4.8c0 1.2.3 2.2 1 2.8.6.7 1.5 1 2.6 1 1 0 1.8-.2 2.4-.7.6-.5.9-1.2.9-2 0-.7-.2-1.3-.7-1.8-.4-.5-1-.8-1.6-1-.6-.2-1.5-.5-2.7-.8-1.6-.4-2.9-.8-3.9-1.3-1-.4-1.8-1.1-2.5-2-.7-1-1-2.2-1-3.8 0-2.2.8-3.9 2.3-5.1 1.5-1.2 3.5-1.8 5.9-1.8 2.5 0 4.4.6 5.9 1.9 1.5 1.2 2.3 3 2.4 5.2h-4.9c0-1-.3-1.8-.9-2.4-.6-.6-1.4-.9-2.5-.9-.9 0-1.7.2-2.2.7-.6.5-.8 1.1-.8 2 0 .6.2 1.1.5 1.5.4.4.9.7 1.4.9.6.2 1.4.5 2.5.7 1.6.4 3 .8 4 1.3 1.1.5 2 1.2 2.7 2.2.7.9 1.1 2.2 1.1 3.8 0 1.3-.3 2.5-1 3.6-.6 1.1-1.6 1.9-2.8 2.6-1.3.6-2.8.9-4.5.9z" 
    fill="#64ffda"
  />
</svg>